<?xml version="1.0" encoding="UTF-8"?>
<svg id="Layer_1" data-name="Layer 1" xmlns="http://www.w3.org/2000/svg" viewBox="0 0 1422.13 330.7">
  <defs>
    <style>
      .cls-1 {
        fill: #b29d87;
      }

      .cls-2 {
        fill: #fff;
      }
    </style>
  </defs>
  <g>
    <polygon class="cls-1" points="30.53 330.7 0 330.7 0 21.32 30.53 46.06 30.53 330.7"/>
    <polygon class="cls-2" points="75.35 330.7 44.82 330.7 44.82 0 181.17 105.13 181.17 145.16 75.35 62.56 75.35 330.7"/>
    <polygon class="cls-2" points="359.84 330.7 329.31 330.7 329.31 89.87 184.13 203.29 88.43 128.79 88.43 89.14 184.12 164.55 359.84 27.28 359.84 330.7"/>
    <polygon class="cls-1" points="315.64 330.7 285.11 330.7 285.11 183.49 180.93 262.03 180.93 224.17 315.64 120.89 315.64 330.7"/>
  </g>
  <g>
    <path class="cls-2" d="M518.86,56.73h19.94c.57,0,1.05.2,1.45.6.4.4.6.88.6,1.45v115.21c0,.57-.2,1.05-.6,1.45-.4.4-.88.6-1.45.6h-19.94c-.57,0-1.05-.2-1.45-.6-.4-.4-.6-.88-.6-1.45v-75.16c0-.45-.11-.68-.34-.68s-.46.17-.68.51l-18.07,28.29c-.57.91-1.36,1.36-2.39,1.36h-10.06c-1.02,0-1.82-.45-2.39-1.36l-18.07-28.29c-.23-.34-.46-.48-.68-.43-.23.06-.34.31-.34.77v74.99c0,.57-.2,1.05-.6,1.45s-.88.6-1.45.6h-19.94c-.57,0-1.05-.2-1.45-.6-.4-.4-.6-.88-.6-1.45V58.78c0-.57.2-1.05.6-1.45.4-.4.88-.6,1.45-.6h19.94c1.02,0,1.82.46,2.39,1.36l25.56,39.71c.34.68.68.68,1.02,0l25.73-39.71c.57-.91,1.36-1.36,2.39-1.36Z"/>
    <path class="cls-2" d="M602.37,172.2c-6.71-3.46-11.87-8.32-15.51-14.57-3.64-6.25-5.45-13.46-5.45-21.64v-39.37c0-8.18,1.82-15.39,5.45-21.64,3.63-6.25,8.8-11.08,15.51-14.49,6.7-3.41,14.49-5.11,23.35-5.11s16.45,1.62,23.09,4.86,11.82,7.84,15.51,13.8c3.69,5.96,5.54,12.87,5.54,20.71,0,1.02-.68,1.65-2.05,1.87l-19.94,1.19h-.34c-1.14,0-1.7-.62-1.7-1.87,0-6.02-1.85-10.85-5.54-14.49-3.69-3.64-8.55-5.45-14.57-5.45s-11.05,1.82-14.74,5.45c-3.69,3.64-5.54,8.47-5.54,14.49v41.07c0,5.91,1.85,10.68,5.54,14.32,3.69,3.64,8.61,5.45,14.74,5.45s10.88-1.82,14.57-5.45c3.69-3.63,5.54-8.41,5.54-14.32,0-1.25.68-1.87,2.05-1.87l19.94.85c.57,0,1.05.17,1.45.51.4.34.6.74.6,1.19,0,7.84-1.85,14.77-5.54,20.79-3.69,6.02-8.86,10.68-15.51,13.98-6.65,3.3-14.35,4.94-23.09,4.94s-16.65-1.73-23.35-5.2Z"/>
    <path class="cls-2" d="M710.17,175.44c-.4-.4-.6-.88-.6-1.45V58.78c0-.57.2-1.05.6-1.45.4-.4.88-.6,1.45-.6h19.94c.57,0,1.05.2,1.45.6.4.4.6.88.6,1.45v95.78c0,.57.28.85.85.85h55.73c.57,0,1.05.2,1.45.6.4.4.6.88.6,1.45v16.53c0,.57-.2,1.05-.6,1.45-.4.4-.88.6-1.45.6h-78.57c-.57,0-1.05-.2-1.45-.6Z"/>
    <path class="cls-2" d="M911.44,76.76c-.4.4-.88.6-1.45.6h-55.9c-.57,0-.85.28-.85.85v26.42c0,.57.28.85.85.85h36.64c.57,0,1.05.2,1.45.6.4.4.6.88.6,1.45v16.53c0,.57-.2,1.05-.6,1.45s-.88.6-1.45.6h-36.64c-.57,0-.85.28-.85.85v27.61c0,.57.28.85.85.85h55.9c.57,0,1.05.2,1.45.6.4.4.6.88.6,1.45v16.53c0,.57-.2,1.05-.6,1.45-.4.4-.88.6-1.45.6h-78.74c-.57,0-1.05-.2-1.45-.6-.4-.4-.6-.88-.6-1.45V58.78c0-.57.2-1.05.6-1.45.4-.4.88-.6,1.45-.6h78.74c.57,0,1.05.2,1.45.6.4.4.6.88.6,1.45v16.53c0,.57-.2,1.05-.6,1.45Z"/>
    <path class="cls-2" d="M951.49,175.44c-.4-.4-.6-.88-.6-1.45V58.78c0-.57.2-1.05.6-1.45s.88-.6,1.45-.6h19.94c.57,0,1.05.2,1.45.6.4.4.6.88.6,1.45v95.78c0,.57.28.85.85.85h55.73c.57,0,1.05.2,1.45.6.4.4.6.88.6,1.45v16.53c0,.57-.2,1.05-.6,1.45-.4.4-.88.6-1.45.6h-78.57c-.57,0-1.05-.2-1.45-.6Z"/>
    <path class="cls-2" d="M1071.13,175.44c-.4-.4-.6-.88-.6-1.45V58.78c0-.57.2-1.05.6-1.45s.88-.6,1.45-.6h19.94c.57,0,1.05.2,1.45.6.4.4.6.88.6,1.45v95.78c0,.57.28.85.85.85h55.73c.57,0,1.05.2,1.45.6.4.4.6.88.6,1.45v16.53c0,.57-.2,1.05-.6,1.45-.4.4-.88.6-1.45.6h-78.57c-.57,0-1.05-.2-1.45-.6Z"/>
    <path class="cls-2" d="M1266.7,174.33l-5.11-16.7c-.23-.45-.51-.68-.85-.68h-41.93c-.34,0-.63.23-.85.68l-4.94,16.7c-.34,1.14-1.08,1.7-2.22,1.7h-21.64c-.68,0-1.19-.2-1.53-.6-.34-.4-.4-.99-.17-1.79l36.81-115.21c.34-1.13,1.08-1.7,2.22-1.7h26.76c1.13,0,1.87.57,2.22,1.7l36.81,115.21c.11.23.17.51.17.85,0,1.02-.63,1.53-1.87,1.53h-21.64c-1.14,0-1.87-.57-2.22-1.7ZM1224.77,138.37h30c.68,0,.91-.34.68-1.02l-15.34-50.62c-.11-.45-.28-.65-.51-.6-.23.06-.4.26-.51.6l-15,50.62c-.11.68.11,1.02.68,1.02Z"/>
    <path class="cls-2" d="M1398.69,57.33c.4-.4.88-.6,1.45-.6h19.94c.57,0,1.05.2,1.45.6.4.4.6.88.6,1.45v115.21c0,.57-.2,1.05-.6,1.45s-.88.6-1.45.6h-19.26c-1.14,0-1.93-.45-2.39-1.36l-44.14-72.94c-.23-.34-.46-.48-.68-.43-.23.06-.34.31-.34.77l.34,71.92c0,.57-.2,1.05-.6,1.45-.4.4-.88.6-1.45.6h-19.94c-.57,0-1.05-.2-1.45-.6-.4-.4-.6-.88-.6-1.45V58.78c0-.57.2-1.05.6-1.45s.88-.6,1.45-.6h19.26c1.13,0,1.93.46,2.39,1.36l43.97,72.6c.23.34.45.48.68.43.23-.06.34-.31.34-.77l-.17-71.58c0-.57.2-1.05.6-1.45Z"/>
  </g>
  <g>
    <g>
      <path class="cls-1" d="M441.45,307.82c-.32-.32-.48-.7-.48-1.16v-92.24c0-.45.16-.84.48-1.16.32-.32.7-.48,1.16-.48h12.55c.45,0,.84.16,1.16.48.32.32.48.71.48,1.16v79.55c0,.46.23.68.68.68h45.71c.45,0,.84.16,1.16.48.32.32.48.7.48,1.16v10.37c0,.46-.16.84-.48,1.16-.32.32-.71.48-1.16.48h-60.58c-.46,0-.84-.16-1.16-.48Z"/>
      <path class="cls-1" d="M576.19,306.93l-4.5-14.6c-.18-.36-.41-.55-.68-.55h-36.02c-.27,0-.5.18-.68.55l-4.5,14.6c-.27.91-.87,1.36-1.77,1.36h-13.64c-.55,0-.96-.16-1.23-.48-.27-.32-.32-.8-.14-1.43l29.61-92.24c.27-.91.86-1.36,1.77-1.36h17.06c.91,0,1.5.46,1.77,1.36l29.74,92.24c.09.18.14.41.14.68,0,.82-.5,1.23-1.5,1.23h-13.64c-.91,0-1.5-.45-1.77-1.36ZM539.08,279.37h27.7c.55,0,.73-.27.55-.82l-14.05-45.71c-.09-.36-.23-.55-.41-.55s-.32.18-.41.55l-13.92,45.71c-.09.55.09.82.55.82Z"/>
      <path class="cls-1" d="M617.94,306.93l-24.83-92.37-.14-.55c0-.82.5-1.23,1.5-1.23h13.37c1,0,1.64.46,1.91,1.36l15.55,62.22c.09.27.23.41.41.41s.32-.14.41-.41l14.87-62.22c.27-.91.86-1.36,1.77-1.36h13.1c1,0,1.64.46,1.91,1.36l15.83,62.35c.09.27.23.41.41.41s.32-.14.41-.41l15.28-62.35c.27-.91.91-1.36,1.91-1.36h12.69c1.27,0,1.77.59,1.5,1.77l-23.6,92.37c-.27.91-.91,1.36-1.91,1.36h-12.69c-1,0-1.64-.45-1.91-1.36l-15.96-65.08c-.09-.27-.23-.43-.41-.48-.18-.04-.32.12-.41.48l-15.28,65.08c-.27.91-.87,1.36-1.77,1.36h-12.01c-1,0-1.64-.45-1.91-1.36Z"/>
    </g>
    <g>
      <path class="cls-1" d="M782.24,305.36c-5.18-2.68-9.19-6.48-12.01-11.39-2.82-4.91-4.23-10.55-4.23-16.92v-33.02c0-6.46,1.41-12.12,4.23-16.99,2.82-4.86,6.82-8.64,12.01-11.32,5.18-2.68,11.19-4.03,18.01-4.03s12.67,1.32,17.81,3.96c5.14,2.64,9.12,6.23,11.94,10.78,2.82,4.55,4.23,9.69,4.23,15.42v1.09c0,.46-.16.84-.48,1.16-.32.32-.71.48-1.16.48h-12.42c-.46,0-.84-.16-1.16-.48-.32-.32-.48-.7-.48-1.16v-.68c0-4.91-1.66-8.96-4.98-12.14-3.32-3.18-7.76-4.78-13.3-4.78s-10.01,1.66-13.37,4.98c-3.37,3.32-5.05,7.71-5.05,13.17v34.11c0,5.46,1.77,9.85,5.32,13.17,3.55,3.32,8.14,4.98,13.78,4.98s9.76-1.43,12.89-4.3c3.14-2.87,4.71-6.8,4.71-11.8v-8.46c0-.45-.23-.68-.68-.68h-16.78c-.46,0-.84-.16-1.16-.48-.32-.32-.48-.7-.48-1.16v-10.1c0-.45.16-.84.48-1.16s.7-.48,1.16-.48h31.52c.45,0,.84.16,1.16.48.32.32.48.71.48,1.16v17.46c0,10.46-3.07,18.6-9.21,24.42-6.14,5.82-14.39,8.73-24.76,8.73-6.82,0-12.83-1.34-18.01-4.03Z"/>
      <path class="cls-1" d="M899.99,307.07l-18.01-39.3c-.18-.36-.46-.55-.82-.55h-16.37c-.46,0-.68.23-.68.68v38.75c0,.46-.16.84-.48,1.16-.32.32-.71.48-1.16.48h-12.55c-.46,0-.84-.16-1.16-.48-.32-.32-.48-.7-.48-1.16v-92.24c0-.45.16-.84.48-1.16s.7-.48,1.16-.48h37.52c5.55,0,10.46,1.16,14.74,3.48,4.27,2.32,7.59,5.59,9.96,9.82,2.36,4.23,3.55,9.07,3.55,14.53,0,6.28-1.62,11.62-4.84,16.03-3.23,4.41-7.71,7.48-13.44,9.21-.18,0-.32.09-.41.27-.09.18-.09.36,0,.55l19.24,39.7c.18.36.27.64.27.82,0,.73-.5,1.09-1.5,1.09h-13.1c-.91,0-1.55-.41-1.91-1.23ZM864.1,227.11v27.15c0,.46.23.68.68.68h20.47c4.37,0,7.89-1.3,10.57-3.89,2.68-2.59,4.02-6.02,4.02-10.3s-1.34-7.73-4.02-10.37c-2.68-2.64-6.21-3.96-10.57-3.96h-20.47c-.46,0-.68.23-.68.68Z"/>
      <path class="cls-1" d="M942.42,305.5c-5.28-2.77-9.35-6.71-12.21-11.8-2.87-5.09-4.3-10.96-4.3-17.6v-31.11c0-6.55,1.45-12.35,4.37-17.4,2.91-5.05,6.98-8.96,12.21-11.73,5.23-2.77,11.26-4.16,18.08-4.16s12.98,1.39,18.22,4.16c5.23,2.78,9.3,6.69,12.21,11.73,2.91,5.05,4.37,10.85,4.37,17.4v31.11c0,6.64-1.46,12.51-4.37,17.6-2.91,5.1-6.98,9.03-12.21,11.8-5.23,2.78-11.3,4.16-18.22,4.16s-12.87-1.39-18.15-4.16ZM974.35,290.69c3.46-3.55,5.19-8.23,5.19-14.05v-31.79c0-5.91-1.73-10.64-5.19-14.19-3.46-3.55-8.05-5.32-13.78-5.32s-10.19,1.77-13.64,5.32c-3.46,3.55-5.19,8.28-5.19,14.19v31.79c0,5.82,1.73,10.51,5.19,14.05,3.46,3.55,8,5.32,13.64,5.32s10.32-1.77,13.78-5.32Z"/>
      <path class="cls-1" d="M1024.83,305.43c-5.19-2.64-9.21-6.39-12.08-11.26-2.87-4.87-4.3-10.48-4.3-16.85v-62.9c0-.45.16-.84.48-1.16.32-.32.7-.48,1.16-.48h12.55c.45,0,.84.16,1.16.48.32.32.48.71.48,1.16v63.17c0,5.37,1.68,9.73,5.05,13.1,3.36,3.37,7.82,5.05,13.37,5.05s10-1.68,13.37-5.05c3.36-3.36,5.05-7.73,5.05-13.1v-63.17c0-.45.16-.84.48-1.16.32-.32.7-.48,1.16-.48h12.55c.45,0,.84.16,1.16.48.32.32.48.71.48,1.16v62.9c0,6.37-1.41,11.98-4.23,16.85-2.82,4.87-6.82,8.62-12.01,11.26-5.19,2.64-11.19,3.96-18.01,3.96s-12.69-1.32-17.87-3.96Z"/>
      <path class="cls-1" d="M1145.85,216.19c4.37,2.37,7.75,5.71,10.16,10.03,2.41,4.32,3.62,9.3,3.62,14.94s-1.23,10.46-3.68,14.74c-2.46,4.28-5.94,7.57-10.44,9.89-4.5,2.32-9.71,3.48-15.62,3.48h-21.83c-.46,0-.68.23-.68.68v36.7c0,.46-.16.84-.48,1.16s-.7.48-1.16.48h-12.55c-.46,0-.84-.16-1.16-.48-.32-.32-.48-.7-.48-1.16v-92.37c0-.45.16-.84.48-1.16.32-.32.7-.48,1.16-.48h37.52c5.73,0,10.78,1.18,15.15,3.55ZM1139.58,252.35c2.82-2.73,4.23-6.32,4.23-10.78s-1.41-8.23-4.23-11.05c-2.82-2.82-6.55-4.23-11.19-4.23h-20.33c-.46,0-.68.23-.68.68v28.79c0,.46.23.68.68.68h20.33c4.64,0,8.37-1.36,11.19-4.09Z"/>
    </g>
  </g>
</svg>